<svg width="29" height="29" viewBox="0 0 29 29" fill="none" xmlns="http://www.w3.org/2000/svg">
<path d="M3.519 10.028L3.434 8.158L4.998 9.161L5.542 8.243L3.893 7.393L5.542 6.543L4.998 5.608L3.434 6.611L3.519 4.741H2.448L2.533 6.611L0.952 5.608L0.425 6.543L2.074 7.393L0.425 8.243L0.952 9.161L2.533 8.158L2.448 10.028H3.519Z" fill="#FE7865"/>
<path d="M18.07 19.52H15.466V22.068H14.584V19.52H11.98V18.694H14.584V16.132H15.466V18.694H18.07V19.52ZM26.56 14.2V14.914L22.458 24H21.366L25.398 15.096H20.358V16.93H19.364V14.2H26.56Z" fill="#141517"/>
</svg>
